<svg version="1.1" viewBox="0.0 0.0 960.0 720.0" fill="none" stroke="none" stroke-linecap="square" stroke-miterlimit="10" xmlns:xlink="http://www.w3.org/1999/xlink" xmlns="http://www.w3.org/2000/svg"><clipPath id="p.0"><path d="m0 0l960.0 0l0 720.0l-960.0 0l0 -720.0z" clip-rule="nonzero"/></clipPath><g clip-path="url(#p.0)"><path fill="#000000" fill-opacity="0.0" d="m0 0l960.0 0l0 720.0l-960.0 0z" fill-rule="evenodd"/><path fill="#ffffff" d="m80.652885 246.5493l0 0c-1.2689056 -9.288528 2.897171 -18.483612 10.730423 -23.683426c7.833252 -5.199829 17.959885 -5.492447 26.082794 -0.7537079l0 0c2.877388 -5.4007263 8.143845 -9.129562 14.2063675 -10.058594c6.0625153 -0.92904663 12.209045 1.0508423 16.580368 5.3407745l0 0c2.4511566 -4.896652 7.2640686 -8.186584 12.730835 -8.702347c5.4667664 -0.5157623 10.813721 1.8156433 14.143494 6.1668854l0 0c4.4283752 -5.1904297 11.474045 -7.375824 18.088303 -5.6105347c6.6142426 1.7652893 11.6091 7.1642 12.823273 13.86058l0 0c5.4255066 1.4741058 9.944855 5.2214813 12.390366 10.273926c2.4455109 5.0524445 2.577301 10.914322 0.36131287 16.071106l0 0c5.3425446 6.926132 6.5923157 16.155106 3.2828827 24.242844c-3.3094177 8.087769 -10.680832 13.819183 -19.363342 15.055389c-0.061187744 7.590637 -4.240494 14.555725 -10.927032 18.210602c-6.6865234 3.6548462 -14.836151 3.4288025 -21.307648 -0.59103394l0 0c-2.7565155 9.091095 -10.5151825 15.780243 -19.92398 17.17746c-9.408798 1.3972473 -18.78099 -2.7479248 -24.067474 -10.644623l0 0c-6.480118 3.8923035 -14.255714 5.0135803 -21.572777 3.1108398c-7.31707 -1.9027405 -13.559242 -6.6691895 -17.31842 -13.224152l0 0c-6.6218643 0.7718811 -13.024292 -2.6455078 -16.029785 -8.556061c-3.0054855 -5.9105835 -1.9742432 -13.056152 2.581932 -17.89038l0 0c-5.906868 -3.4630127 -8.920914 -10.334778 -7.470421 -17.031921c1.4504929 -6.697159 7.0368347 -11.702118 13.84597 -12.4049835z" fill-rule="evenodd"/><path fill="#000000" fill-opacity="0.0" d="m74.146454 276.3442l0 0c2.787468 1.6341858 6.0076523 2.3755188 9.228188 2.1243896m4.2182083 24.322632c1.3849411 -0.16143799 2.7424545 -0.5032959 4.0375214 -1.0167542m34.851738 11.129639c-0.97408295 -1.4550476 -1.7896347 -3.0098572 -2.4327545 -4.6380005m46.425896 -1.8951111l0 0c0.5025482 -1.6574707 0.8281708 -3.3633118 0.971405 -5.089142m31.262054 -12.529785c0.06515503 -8.081421 -4.542938 -15.480835 -11.844986 -19.019989m27.925293 -20.277405c-1.1825409 2.7518768 -2.9878235 5.1930237 -5.2743073 7.1320496m-7.4762726 -33.4778l0 0c0.20149231 1.1112671 0.29473877 2.2392426 0.27845764 3.3682709m-31.189499 -11.617981l0 0c-1.10466 1.2947693 -2.0147552 2.7416382 -2.70195 4.295578m-24.172638 -1.7606812l0 0c-0.5886841 1.1760101 -1.0282745 2.4204407 -1.3086548 3.7046204m-29.478523 1.0133057l0 0c1.7188034 1.0027161 3.3089294 2.2095795 4.7354507 3.594101m-41.548195 20.843155l0 0c0.17488861 1.2801971 0.45122528 2.5446167 0.826416 3.7814026" fill-rule="evenodd"/><path stroke="#000000" stroke-width="1.0" stroke-linejoin="round" stroke-linecap="butt" d="m80.652885 246.5493l0 0c-1.2689056 -9.288528 2.897171 -18.483612 10.730423 -23.683426c7.833252 -5.199829 17.959885 -5.492447 26.082794 -0.7537079l0 0c2.877388 -5.4007263 8.143845 -9.129562 14.2063675 -10.058594c6.0625153 -0.92904663 12.209045 1.0508423 16.580368 5.3407745l0 0c2.4511566 -4.896652 7.2640686 -8.186584 12.730835 -8.702347c5.4667664 -0.5157623 10.813721 1.8156433 14.143494 6.1668854l0 0c4.4283752 -5.1904297 11.474045 -7.375824 18.088303 -5.6105347c6.6142426 1.7652893 11.6091 7.1642 12.823273 13.86058l0 0c5.4255066 1.4741058 9.944855 5.2214813 12.390366 10.273926c2.4455109 5.0524445 2.577301 10.914322 0.36131287 16.071106l0 0c5.3425446 6.926132 6.5923157 16.155106 3.2828827 24.242844c-3.3094177 8.087769 -10.680832 13.819183 -19.363342 15.055389c-0.061187744 7.590637 -4.240494 14.555725 -10.927032 18.210602c-6.6865234 3.6548462 -14.836151 3.4288025 -21.307648 -0.59103394l0 0c-2.7565155 9.091095 -10.5151825 15.780243 -19.92398 17.17746c-9.408798 1.3972473 -18.78099 -2.7479248 -24.067474 -10.644623l0 0c-6.480118 3.8923035 -14.255714 5.0135803 -21.572777 3.1108398c-7.31707 -1.9027405 -13.559242 -6.6691895 -17.31842 -13.224152l0 0c-6.6218643 0.7718811 -13.024292 -2.6455078 -16.029785 -8.556061c-3.0054855 -5.9105835 -1.9742432 -13.056152 2.581932 -17.89038l0 0c-5.906868 -3.4630127 -8.920914 -10.334778 -7.470421 -17.031921c1.4504929 -6.697159 7.0368347 -11.702118 13.84597 -12.4049835z" fill-rule="evenodd"/><path stroke="#000000" stroke-width="1.0" stroke-linejoin="round" stroke-linecap="butt" d="m74.146454 276.3442l0 0c2.787468 1.6341858 6.0076523 2.3755188 9.228188 2.1243896m4.2182083 24.322632c1.3849411 -0.16143799 2.7424545 -0.5032959 4.0375214 -1.0167542m34.851738 11.129639c-0.97408295 -1.4550476 -1.7896347 -3.0098572 -2.4327545 -4.6380005m46.425896 -1.8951111l0 0c0.5025482 -1.6574707 0.8281708 -3.3633118 0.971405 -5.089142m31.262054 -12.529785c0.06515503 -8.081421 -4.542938 -15.480835 -11.844986 -19.019989m27.925293 -20.277405c-1.1825409 2.7518768 -2.9878235 5.1930237 -5.2743073 7.1320496m-7.4762726 -33.4778l0 0c0.20149231 1.1112671 0.29473877 2.2392426 0.27845764 3.3682709m-31.189499 -11.617981l0 0c-1.10466 1.2947693 -2.0147552 2.7416382 -2.70195 4.295578m-24.172638 -1.7606812l0 0c-0.5886841 1.1760101 -1.0282745 2.4204407 -1.3086548 3.7046204m-29.478523 1.0133057l0 0c1.7188034 1.0027161 3.3089294 2.2095795 4.7354507 3.594101m-41.548195 20.843155l0 0c0.17488861 1.2801971 0.45122528 2.5446167 0.826416 3.7814026" fill-rule="evenodd"/><path fill="#000000" d="m121.35212 258.48392l0 9.46875l-1.578125 0l0 -9.46875l1.578125 0zm3.2095795 3.9375l0 5.53125l-1.53125 0l0 -7.046875l1.4375 0l0.09375 1.515625zm-0.28125 1.75l-0.484375 0q0 -0.75 0.15625 -1.375q0.171875 -0.625 0.484375 -1.078125q0.3125 -0.453125 0.75 -0.6875q0.453125 -0.25 0.984375 -0.25q0.421875 0 0.765625 0.140625q0.359375 0.140625 0.609375 0.453125q0.25 0.3125 0.375 0.8125q0.14063263 0.5 0.14063263 1.21875l0 4.546875l-1.5156326 0l0 -4.5625q0 -0.484375 -0.109375 -0.765625q-0.109375 -0.296875 -0.328125 -0.421875q-0.203125 -0.140625 -0.515625 -0.140625q-0.296875 0 -0.546875 0.171875q-0.234375 0.171875 -0.40625 0.46875q-0.171875 0.28125 -0.265625 0.671875q-0.09375 0.375 -0.09375 0.796875zm8.139397 -3.265625l0 1.171875l-3.453125 0l0 -1.171875l3.453125 0zm-2.515625 -1.71875l1.515625 0l0 6.796875q0 0.328125 0.0625 0.5q0.078125 0.171875 0.203125 0.234375q0.125 0.046875 0.3125 0.046875q0.125 0 0.25 -0.015625q0.125 -0.03125 0.1875 -0.046875l0 1.21875q-0.171875 0.0625 -0.390625 0.109375q-0.21875 0.046875 -0.53125 0.046875q-0.46875 0 -0.828125 -0.1875q-0.359375 -0.1875 -0.578125 -0.625q-0.203125 -0.4375 -0.203125 -1.171875l0 -6.90625zm6.381241 8.890625q-0.6875 0 -1.21875 -0.203125q-0.53125 -0.203125 -0.90625 -0.609375q-0.359375 -0.40625 -0.5625 -1.0q-0.1875 -0.59375 -0.1875 -1.390625l0 -0.671875q0 -0.890625 0.203125 -1.53125q0.203125 -0.65625 0.5625 -1.0625q0.375 -0.421875 0.859375 -0.625q0.5 -0.203125 1.09375 -0.203125q0.65625 0 1.140625 0.21875q0.5 0.21875 0.8125 0.640625q0.3125 0.421875 0.46875 1.0625q0.15625 0.625 0.15625 1.453125l0 0.75l-4.578125 0l0 -1.140625l3.078125 0l0 -0.15625q-0.015625 -0.484375 -0.125 -0.828125q-0.09375 -0.359375 -0.328125 -0.53125q-0.234375 -0.1875 -0.640625 -0.1875q-0.28125 0 -0.515625 0.109375q-0.234375 0.109375 -0.375 0.359375q-0.140625 0.234375 -0.21875 0.65625q-0.078125 0.40625 -0.078125 1.015625l0 0.671875q0 0.53125 0.09375 0.90625q0.09375 0.359375 0.28125 0.59375q0.1875 0.21875 0.453125 0.328125q0.28125 0.109375 0.625 0.109375q0.53125 0 0.90625 -0.1875q0.390625 -0.203125 0.671875 -0.53125l0.671875 0.9375q-0.1875 0.25 -0.515625 0.5q-0.3125 0.234375 -0.765625 0.390625q-0.453125 0.15625 -1.0625 0.15625zm5.147278 -5.8125l0 5.6875l-1.515625 0l0 -7.046875l1.4375 0l0.078125 1.359375zm1.6875 -1.40625l0 1.5q-0.125 -0.03125 -0.28125 -0.03125q-0.140625 -0.015625 -0.28125 -0.015625q-0.3125 0 -0.546875 0.109375q-0.21875 0.109375 -0.375 0.328125q-0.15625 0.203125 -0.25 0.5q-0.09375 0.28125 -0.109375 0.65625l-0.328125 0.015625q0 -0.671875 0.109375 -1.234375q0.109375 -0.578125 0.3125 -1.0q0.21875 -0.421875 0.53125 -0.65625q0.328125 -0.25 0.75 -0.25q0.109375 0 0.25 0.03125q0.15625 0.015625 0.21875 0.046875zm2.546524 1.5625l0 5.53125l-1.53125 0l0 -7.046875l1.4375 0l0.09375 1.515625zm-0.28125 1.75l-0.484375 0q0 -0.75 0.15625 -1.375q0.171875 -0.625 0.484375 -1.078125q0.3125 -0.453125 0.75 -0.6875q0.453125 -0.25 0.984375 -0.25q0.421875 0 0.765625 0.140625q0.359375 0.140625 0.609375 0.453125q0.25 0.3125 0.375 0.8125q0.140625 0.5 0.140625 1.21875l0 4.546875l-1.515625 0l0 -4.5625q0 -0.484375 -0.109375 -0.765625q-0.109375 -0.296875 -0.328125 -0.421875q-0.203125 -0.140625 -0.515625 -0.140625q-0.296875 0 -0.546875 0.171875q-0.234375 0.171875 -0.40625 0.46875q-0.171875 0.28125 -0.265625 0.671875q-0.09375 0.375 -0.09375 0.796875zm7.983124 3.90625q-0.6875 0 -1.21875 -0.203125q-0.53123474 -0.203125 -0.90623474 -0.609375q-0.359375 -0.40625 -0.5625 -1.0q-0.1875 -0.59375 -0.1875 -1.390625l0 -0.671875q0 -0.890625 0.203125 -1.53125q0.203125 -0.65625 0.5625 -1.0625q0.375 -0.421875 0.859375 -0.625q0.49998474 -0.203125 1.0937347 -0.203125q0.65625 0 1.140625 0.21875q0.5 0.21875 0.8125 0.640625q0.3125 0.421875 0.46875 1.0625q0.15625 0.625 0.15625 1.453125l0 0.75l-4.5781097 0l0 -1.140625l3.0781097 0l0 -0.15625q-0.015625 -0.484375 -0.125 -0.828125q-0.09375 -0.359375 -0.328125 -0.53125q-0.234375 -0.1875 -0.640625 -0.1875q-0.28125 0 -0.515625 0.109375q-0.234375 0.109375 -0.375 0.359375q-0.140625 0.234375 -0.21873474 0.65625q-0.078125 0.40625 -0.078125 1.015625l0 0.671875q0 0.53125 0.09375 0.90625q0.09373474 0.359375 0.28123474 0.59375q0.1875 0.21875 0.453125 0.328125q0.28125 0.109375 0.625 0.109375q0.53125 0 0.90625 -0.1875q0.390625 -0.203125 0.671875 -0.53125l0.671875 0.9375q-0.1875 0.25 -0.515625 0.5q-0.3125 0.234375 -0.765625 0.390625q-0.453125 0.15625 -1.0625 0.15625zm6.475403 -7.171875l0 1.171875l-3.453125 0l0 -1.171875l3.453125 0zm-2.515625 -1.71875l1.515625 0l0 6.796875q0 0.328125 0.0625 0.5q0.078125 0.171875 0.203125 0.234375q0.125 0.046875 0.3125 0.046875q0.125 0 0.25 -0.015625q0.125 -0.03125 0.1875 -0.046875l0 1.21875q-0.171875 0.0625 -0.390625 0.109375q-0.21875 0.046875 -0.53125 0.046875q-0.46875 0 -0.828125 -0.1875q-0.359375 -0.1875 -0.578125 -0.625q-0.203125 -0.4375 -0.203125 -1.171875l0 -6.90625z" fill-rule="nonzero"/><path fill="#ffffff" d="m256.8868 226.99855l161.6661 0l0 77.64476l-161.6661 0z" fill-rule="evenodd"/><path stroke="#000000" stroke-width="1.0" stroke-linejoin="round" stroke-linecap="butt" d="m256.8868 226.99855l161.6661 0l0 77.64476l-161.6661 0z" fill-rule="evenodd"/><path fill="#000000" d="m330.71454 267.82782l1.0625 -5.171875l0.65625 0l-0.03125 1.296875l-1.140625 5.328125l-0.6875 0l0.140625 -1.453125zm-0.671875 -5.171875l0.84375 5.140625l0.03125 1.484375l-0.71875 0l-1.25 -6.625l1.09375 0zm3.546875 5.125l0.828125 -5.125l1.09375 0l-1.25 6.625l-0.71875 0l0.046875 -1.5zm-0.890625 -5.125l1.046875 5.1875l0.140625 1.4375l-0.6875 0l-1.125 -5.34375l-0.03125 -1.28125l0.65625 0zm5.7362976 0.90625l-1.609375 5.71875l-1.15625 0l2.109375 -6.625l0.71875 0l-0.0625 0.90625zm1.28125 5.71875l-1.609375 -5.71875l-0.078125 -0.90625l0.734375 0l2.109375 6.625l-1.15625 0zm0.03125 -2.46875l0 0.9375l-3.09375 0l0 -0.9375l3.09375 0zm6.374542 -4.15625l0 6.625l-1.078125 0l-2.34375 -4.59375l0 4.59375l-1.0625 0l0 -6.625l1.0625 0l2.359375 4.609375l0 -4.609375l1.0625 0z" fill-rule="nonzero"/><path fill="#000000" fill-opacity="0.0" d="m256.8868 265.82092l-33.209396 0" fill-rule="evenodd"/><path stroke="#000000" stroke-width="1.0" stroke-linejoin="round" stroke-linecap="butt" d="m256.8868 265.82092l-33.209396 0" fill-rule="evenodd"/><path fill="#ffffff" d="m757.4226 417.46448l0 0c0 -6.200348 5.026367 -11.226746 11.226746 -11.226746l139.21265 0c2.977478 0 5.833069 1.1828308 7.9384766 3.2882385c2.1054077 2.1054382 3.288269 4.9609985 3.288269 7.938507l0 44.90567c0 6.200348 -5.026428 11.226746 -11.226746 11.226746l-139.21265 0c-6.2003784 0 -11.226746 -5.0263977 -11.226746 -11.226746z" fill-rule="evenodd"/><path stroke="#000000" stroke-width="1.0" stroke-linejoin="round" stroke-linecap="butt" d="m757.4226 417.46448l0 0c0 -6.200348 5.026367 -11.226746 11.226746 -11.226746l139.21265 0c2.977478 0 5.833069 1.1828308 7.9384766 3.2882385c2.1054077 2.1054382 3.288269 4.9609985 3.288269 7.938507l0 44.90567c0 6.200348 -5.026428 11.226746 -11.226746 11.226746l-139.21265 0c-6.2003784 0 -11.226746 -5.0263977 -11.226746 -11.226746z" fill-rule="evenodd"/><path fill="#000000" d="m830.96155 437.65857l-1.609375 5.71875l-1.15625 0l2.109375 -6.625l0.71875 0l-0.0625 0.90625zm1.28125 5.71875l-1.609375 -5.71875l-0.078125 -0.90625l0.734375 0l2.109375 6.625l-1.15625 0zm0.03125 -2.46875l0 0.9375l-3.09375 0l0 -0.9375l3.09375 0zm4.0776978 0.015625l-1.40625 0l0 -0.9375l1.40625 0q0.34375 0 0.546875 -0.140625q0.21875 -0.140625 0.3125 -0.390625q0.09375 -0.265625 0.09375 -0.59375q0 -0.296875 -0.09375 -0.5625q-0.09375 -0.28125 -0.3125 -0.453125q-0.203125 -0.171875 -0.546875 -0.171875l-1.09375 0l0 5.703125l-1.09375 0l0 -6.625l2.1875 0q0.65625 0 1.109375 0.28125q0.46875 0.265625 0.71875 0.734375q0.25 0.46875 0.25 1.09375q0 0.640625 -0.25 1.109375q-0.25 0.453125 -0.71875 0.703125q-0.453125 0.25 -1.109375 0.25zm5.6065674 2.453125l1.03125 -6.625l0.71875 0l-1.046875 6.625l-0.703125 0zm1.46875 0l1.03125 -6.625l0.71875 0l-1.03125 6.625l-0.71875 0zm2.234375 -4.015625l-3.984375 0l0 -0.71875l3.984375 0l0 0.71875zm-0.296875 2.140625l-3.984375 0l0 -0.703125l3.984375 0l0 0.703125zm4.869568 0.984375l0 0.890625l-3.8125 0l0 -0.765625l1.796875 -2.34375q0.296875 -0.40625 0.453125 -0.6875q0.171875 -0.296875 0.234375 -0.53125q0.0625 -0.234375 0.0625 -0.453125q0 -0.3125 -0.09375 -0.546875q-0.078125 -0.234375 -0.25 -0.359375q-0.15625 -0.140625 -0.390625 -0.140625q-0.296875 0 -0.484375 0.15625q-0.1875 0.15625 -0.28125 0.4375q-0.09375 0.265625 -0.09375 0.625l-1.0625 0q0 -0.578125 0.21875 -1.0625q0.234375 -0.484375 0.65625 -0.765625q0.4375 -0.28125 1.0625 -0.28125q0.578125 0 0.96875 0.21875q0.40625 0.21875 0.609375 0.640625q0.203125 0.40625 0.203125 0.96875q0 0.3125 -0.078125 0.625q-0.078125 0.296875 -0.234375 0.609375q-0.15625 0.296875 -0.375 0.609375q-0.203125 0.296875 -0.453125 0.609375l-1.140625 1.546875l2.484375 0z" fill-rule="nonzero"/><path fill="#000000" fill-opacity="0.0" d="m337.71985 304.6433l0 45.859924" fill-rule="evenodd"/><path stroke="#000000" stroke-width="3.0" stroke-linejoin="round" stroke-linecap="butt" d="m337.71985 304.6433l0 45.859924" fill-rule="evenodd"/><path fill="#ffffff" d="m499.03568 256.0428l0 0c-1.7504578 -9.288528 3.9966736 -18.483612 14.802704 -23.683426c10.805969 -5.199829 24.775757 -5.492447 35.981323 -0.7537079l0 0c3.9693604 -5.4007416 11.234497 -9.129562 19.597778 -10.058609c8.363281 -0.9290314 16.842468 1.0508575 22.87268 5.3407745l0 0c3.3814087 -4.896652 10.020813 -8.186569 17.562256 -8.702332c7.541443 -0.5157623 14.917603 1.815628 19.511047 6.1668854l0 0c6.1089478 -5.190445 15.828491 -7.375824 24.95288 -5.6105347c9.124451 1.7652893 16.014832 7.1641846 17.68982 13.86058l0 0c7.484497 1.4741058 13.718994 5.2214813 17.09259 10.273926c3.3735962 5.0524445 3.555359 10.914307 0.4984131 16.071106l0 0c7.370056 6.926117 9.094116 16.15509 4.5287476 24.242859c-4.5653687 8.087738 -14.734253 13.819153 -26.711853 15.055359c-0.08441162 7.590637 -5.8497925 14.555725 -15.073853 18.210602c-9.224121 3.6548767 -20.466553 3.428833 -29.394043 -0.59103394l0 0c-3.8026123 9.091095 -14.505737 15.780243 -27.48523 17.17749c-12.979492 1.3972168 -25.908508 -2.7479248 -33.201233 -10.644623l0 0c-8.939331 3.8923035 -19.665833 5.01355 -29.759766 3.1108093c-10.093933 -1.9027405 -18.705017 -6.6691895 -23.890839 -13.224121l0 0c-9.134918 0.7718506 -17.967102 -2.6455078 -22.11319 -8.556091c-4.1460876 -5.9105835 -2.7234802 -13.056122 3.561798 -17.89035l0 0c-8.14856 -3.4630127 -12.3064575 -10.334778 -10.305481 -17.031952c2.000946 -6.6971436 9.707336 -11.702087 19.100586 -12.404968z" fill-rule="evenodd"/><path fill="#000000" fill-opacity="0.0" d="m490.06003 285.83768l0 0c3.845337 1.6342163 8.287598 2.3755188 12.730316 2.1244202m5.8190613 24.322601c1.9105225 -0.16140747 3.7832336 -0.5032654 5.5697937 -1.0167236m48.078125 11.129608c-1.34375 -1.4550171 -2.468811 -3.0098572 -3.355957 -4.6380005m64.04474 -1.8951111l0 0c0.69329834 -1.6574402 1.142456 -3.3633118 1.3400879 -5.089142m43.12616 -12.529785c0.089904785 -8.08139 -6.267029 -15.480804 -16.34021 -19.019989m38.52307 -20.277405c-1.6312866 2.751892 -4.121704 5.1930237 -7.27594 7.1320496m-10.313538 -33.477783l0 0c0.2779541 1.1112671 0.4066162 2.2392426 0.38415527 3.3682709m-43.026123 -11.617981l0 0c-1.5238647 1.294754 -2.779358 2.7416382 -3.727356 4.295578m-33.346252 -1.7606964l0 0c-0.8121338 1.1760254 -1.4185181 2.420456 -1.8052979 3.7046204m-40.66577 1.0133057l0 0c2.3710938 1.0027161 4.564636 2.2095947 6.5325317 3.5941162m-57.31595 20.843155l0 0c0.24127197 1.2801819 0.62246704 2.5446167 1.1400452 3.7814026" fill-rule="evenodd"/><path stroke="#000000" stroke-width="1.0" stroke-linejoin="round" stroke-linecap="butt" d="m499.03568 256.0428l0 0c-1.7504578 -9.288528 3.9966736 -18.483612 14.802704 -23.683426c10.805969 -5.199829 24.775757 -5.492447 35.981323 -0.7537079l0 0c3.9693604 -5.4007416 11.234497 -9.129562 19.597778 -10.058609c8.363281 -0.9290314 16.842468 1.0508575 22.87268 5.3407745l0 0c3.3814087 -4.896652 10.020813 -8.186569 17.562256 -8.702332c7.541443 -0.5157623 14.917603 1.815628 19.511047 6.1668854l0 0c6.1089478 -5.190445 15.828491 -7.375824 24.95288 -5.6105347c9.124451 1.7652893 16.014832 7.1641846 17.68982 13.86058l0 0c7.484497 1.4741058 13.718994 5.2214813 17.09259 10.273926c3.3735962 5.0524445 3.555359 10.914307 0.4984131 16.071106l0 0c7.370056 6.926117 9.094116 16.15509 4.5287476 24.242859c-4.5653687 8.087738 -14.734253 13.819153 -26.711853 15.055359c-0.08441162 7.590637 -5.8497925 14.555725 -15.073853 18.210602c-9.224121 3.6548767 -20.466553 3.428833 -29.394043 -0.59103394l0 0c-3.8026123 9.091095 -14.505737 15.780243 -27.48523 17.17749c-12.979492 1.3972168 -25.908508 -2.7479248 -33.201233 -10.644623l0 0c-8.939331 3.8923035 -19.665833 5.01355 -29.759766 3.1108093c-10.093933 -1.9027405 -18.705017 -6.6691895 -23.890839 -13.224121l0 0c-9.134918 0.7718506 -17.967102 -2.6455078 -22.11319 -8.556091c-4.1460876 -5.9105835 -2.7234802 -13.056122 3.561798 -17.89035l0 0c-8.14856 -3.4630127 -12.3064575 -10.334778 -10.305481 -17.031952c2.000946 -6.6971436 9.707336 -11.702087 19.100586 -12.404968z" fill-rule="evenodd"/><path stroke="#000000" stroke-width="1.0" stroke-linejoin="round" stroke-linecap="butt" d="m490.06003 285.83768l0 0c3.845337 1.6342163 8.287598 2.3755188 12.730316 2.1244202m5.8190613 24.322601c1.9105225 -0.16140747 3.7832336 -0.5032654 5.5697937 -1.0167236m48.078125 11.129608c-1.34375 -1.4550171 -2.468811 -3.0098572 -3.355957 -4.6380005m64.04474 -1.8951111l0 0c0.69329834 -1.6574402 1.142456 -3.3633118 1.3400879 -5.089142m43.12616 -12.529785c0.089904785 -8.08139 -6.267029 -15.480804 -16.34021 -19.019989m38.52307 -20.277405c-1.6312866 2.751892 -4.121704 5.1930237 -7.27594 7.1320496m-10.313538 -33.477783l0 0c0.2779541 1.1112671 0.4066162 2.2392426 0.38415527 3.3682709m-43.026123 -11.617981l0 0c-1.5238647 1.294754 -2.779358 2.7416382 -3.727356 4.295578m-33.346252 -1.7606964l0 0c-0.8121338 1.1760254 -1.4185181 2.420456 -1.8052979 3.7046204m-40.66577 1.0133057l0 0c2.3710938 1.0027161 4.564636 2.2095947 6.5325317 3.5941162m-57.31595 20.843155l0 0c0.24127197 1.2801819 0.62246704 2.5446167 1.1400452 3.7814026" fill-rule="evenodd"/><path fill="#000000" d="m561.8631 269.153l1.0625 -5.171875l0.65625 0l-0.03125 1.296875l-1.140625 5.328125l-0.6875 0l0.140625 -1.453125zm-0.671875 -5.171875l0.84375 5.140625l0.03125 1.484375l-0.71875 0l-1.25 -6.625l1.09375 0zm3.546875 5.125l0.828125 -5.125l1.09375 0l-1.25 6.625l-0.71875 0l0.046875 -1.5zm-0.890625 -5.125l1.046875 5.1875l0.140625 1.4375l-0.6875 0l-1.125 -5.34375l-0.03125 -1.28125l0.65625 0zm4.791626 0l0 6.625l-1.09375 0l0 -6.625l1.09375 0zm2.385376 0l0 6.625l-1.09375 0l0 -6.625l1.09375 0zm2.15625 2.890625l0 0.921875l-2.40625 0l0 -0.921875l2.40625 0zm0.3125 -2.890625l0 0.921875l-2.71875 0l0 -0.921875l2.71875 0zm2.041748 0l0 6.625l-1.09375 0l0 -6.625l1.09375 0zm3.8118896 0l1.0 0l1.53125 4.921875l1.515625 -4.921875l0.9375 0l-2.046875 6.625l-0.828125 0l-2.109375 -6.625zm-0.375 0l0.921875 0l0.15625 4.21875l0 2.40625l-1.078125 0l0 -6.625zm4.875 0l0.9375 0l0 6.625l-1.078125 0l0 -2.40625l0.140625 -4.21875zm5.8723755 5.703125l0 0.921875l-2.875 0l0 -0.921875l2.875 0zm-2.59375 -5.703125l0 6.625l-1.09375 0l0 -6.625l1.09375 0zm2.203125 2.75l0 0.921875l-2.484375 0l0 -0.921875l2.484375 0zm0.359375 -2.75l0 0.921875l-2.84375 0l0 -0.921875l2.84375 0zm3.7923584 4.90625q0 -0.203125 -0.046875 -0.359375q-0.03125 -0.15625 -0.15625 -0.28125q-0.125 -0.140625 -0.34375 -0.265625q-0.203125 -0.140625 -0.546875 -0.265625q-0.390625 -0.15625 -0.734375 -0.328125q-0.34375 -0.1875 -0.609375 -0.40625q-0.25 -0.234375 -0.390625 -0.546875q-0.140625 -0.3125 -0.140625 -0.71875q0 -0.40625 0.140625 -0.734375q0.140625 -0.34375 0.40625 -0.578125q0.265625 -0.25 0.625 -0.375q0.375 -0.140625 0.828125 -0.140625q0.640625 0 1.09375 0.28125q0.46875 0.265625 0.703125 0.734375q0.25 0.453125 0.25 1.0l-1.109375 0q0 -0.3125 -0.09375 -0.5625q-0.09375 -0.25 -0.3125 -0.390625q-0.203125 -0.140625 -0.546875 -0.140625q-0.296875 0 -0.5 0.125q-0.1875 0.109375 -0.28125 0.3125q-0.09375 0.203125 -0.09375 0.46875q0 0.1875 0.078125 0.34375q0.078125 0.140625 0.21875 0.265625q0.140625 0.109375 0.34375 0.21875q0.21875 0.109375 0.484375 0.21875q0.46875 0.15625 0.8125 0.375q0.359375 0.203125 0.578125 0.453125q0.21875 0.25 0.328125 0.578125q0.125 0.3125 0.125 0.71875q0 0.40625 -0.140625 0.75q-0.140625 0.328125 -0.40625 0.5625q-0.265625 0.234375 -0.640625 0.375q-0.375 0.125 -0.828125 0.125q-0.4375 0 -0.828125 -0.125q-0.390625 -0.125 -0.703125 -0.390625q-0.3125 -0.265625 -0.5 -0.65625q-0.171875 -0.40625 -0.171875 -0.9375l1.109375 0q0 0.328125 0.078125 0.546875q0.078125 0.21875 0.21875 0.375q0.15625 0.140625 0.359375 0.203125q0.203125 0.0625 0.453125 0.0625q0.3125 0 0.5 -0.109375q0.203125 -0.109375 0.296875 -0.3125q0.09375 -0.203125 0.09375 -0.46875zm5.7387695 -2.15625l0 0.9375l-2.796875 0l0 -0.9375l2.796875 0zm-2.546875 -2.75l0 6.625l-1.09375 0l0 -6.625l1.09375 0zm3.40625 0l0 6.625l-1.109375 0l0 -6.625l1.109375 0z" fill-rule="nonzero"/><path fill="#000000" d="m554.4158 281.37177l0 0.234375l-3.0 0l0 -0.234375l3.0 0zm-2.859375 -6.390625l0 6.625l-0.25 0l0 -6.625l0.25 0zm5.729431 0.1875l-2.015625 6.4375l-0.265625 0l2.125 -6.625l0.21875 0l-0.0625 0.1875zm1.96875 6.4375l-2.015625 -6.4375l-0.046875 -0.1875l0.203125 0l2.109375 6.625l-0.25 0zm-0.578125 -2.21875l0 0.234375l-2.828125 0l0 -0.234375l2.828125 0zm5.97052 -4.40625l0 6.625l-0.234375 0l-3.578125 -6.15625l0 6.15625l-0.25 0l0 -6.625l0.25 0l3.5625 6.140625l0 -6.140625l0.25 0zm1.9473267 5.90625l0 0.59375q0 0.4375 -0.140625 0.734375q-0.140625 0.3125 -0.359375 0.546875l-0.1875 -0.125q0.140625 -0.1875 0.21875 -0.359375q0.09375 -0.171875 0.140625 -0.359375q0.046875 -0.1875 0.046875 -0.421875l0 -0.609375l0.28125 0zm3.9620361 -5.90625l0 6.625l-0.234375 0l0 -6.625l0.234375 0zm5.834717 2.46875l0 1.6875q0 0.609375 -0.15625 1.09375q-0.140625 0.46875 -0.40625 0.796875q-0.265625 0.328125 -0.65625 0.5q-0.390625 0.171875 -0.875 0.171875q-0.484375 0 -0.875 -0.171875q-0.390625 -0.171875 -0.671875 -0.5q-0.265625 -0.328125 -0.40625 -0.796875q-0.140625 -0.484375 -0.140625 -1.09375l0 -1.6875q0 -0.609375 0.140625 -1.078125q0.140625 -0.484375 0.40625 -0.8125q0.28125 -0.328125 0.65625 -0.5q0.390625 -0.171875 0.875 -0.171875q0.5 0 0.875 0.171875q0.390625 0.171875 0.65625 0.5q0.28125 0.328125 0.421875 0.8125q0.15625 0.46875 0.15625 1.078125zm-0.25 1.6875l0 -1.703125q0 -0.546875 -0.125 -0.96875q-0.109375 -0.4375 -0.359375 -0.734375q-0.234375 -0.296875 -0.578125 -0.453125q-0.34375 -0.15625 -0.796875 -0.15625q-0.4375 0 -0.78125 0.15625q-0.34375 0.15625 -0.59375 0.453125q-0.234375 0.296875 -0.359375 0.734375q-0.109375 0.421875 -0.109375 0.96875l0 1.703125q0 0.546875 0.125 0.984375q0.125 0.421875 0.359375 0.734375q0.234375 0.296875 0.578125 0.453125q0.34375 0.15625 0.796875 0.15625q0.453125 0 0.796875 -0.15625q0.34375 -0.15625 0.578125 -0.453125q0.234375 -0.3125 0.34375 -0.734375q0.125 -0.4375 0.125 -0.984375zm3.3133545 -4.15625l0 6.625l-0.234375 0l0 -6.625l0.234375 0zm2.046875 0l0 0.21875l-4.3125 0l0 -0.21875l4.3125 0zm0.39178467 5.90625l0 0.59375q0 0.4375 -0.140625 0.734375q-0.140625 0.3125 -0.359375 0.546875l-0.1875 -0.125q0.140625 -0.1875 0.21875 -0.359375q0.09375 -0.171875 0.140625 -0.359375q0.046875 -0.1875 0.046875 -0.421875l0 -0.609375l0.28125 0zm7.555847 -2.28125l0 2.296875q-0.09375 0.109375 -0.34375 0.3125q-0.234375 0.1875 -0.625 0.34375q-0.390625 0.140625 -0.953125 0.140625q-0.484375 0 -0.875 -0.171875q-0.390625 -0.171875 -0.671875 -0.5q-0.28125 -0.328125 -0.4375 -0.796875q-0.15625 -0.484375 -0.15625 -1.09375l0 -1.796875q0 -0.578125 0.140625 -1.03125q0.15625 -0.453125 0.421875 -0.765625q0.28125 -0.328125 0.65625 -0.484375q0.390625 -0.171875 0.859375 -0.171875q0.609375 0 1.03125 0.21875q0.421875 0.21875 0.65625 0.640625q0.234375 0.40625 0.296875 1.015625l-0.25 0q-0.046875 -0.515625 -0.25 -0.875q-0.1875 -0.375 -0.546875 -0.578125q-0.359375 -0.203125 -0.9375 -0.203125q-0.4375 0 -0.78125 0.15625q-0.328125 0.15625 -0.578125 0.453125q-0.234375 0.28125 -0.359375 0.6875q-0.125 0.40625 -0.125 0.9375l0 1.796875q0 0.546875 0.125 0.984375q0.140625 0.421875 0.390625 0.734375q0.25 0.296875 0.59375 0.46875q0.34375 0.15625 0.796875 0.15625q0.453125 0 0.796875 -0.125q0.34375 -0.140625 0.5625 -0.296875q0.234375 -0.171875 0.328125 -0.265625l0 -1.953125l-1.703125 0l0 -0.234375l1.9375 0zm5.1849976 -3.625l0.234375 0l0 4.65625q0 0.75 -0.25 1.203125q-0.25 0.453125 -0.6875 0.65625q-0.4375 0.203125 -0.984375 0.203125q-0.546875 0 -0.984375 -0.203125q-0.4375 -0.203125 -0.6875 -0.65625q-0.25 -0.453125 -0.25 -1.203125l0 -4.65625l0.234375 0l0 4.65625q0 0.640625 0.21875 1.046875q0.234375 0.40625 0.609375 0.609375q0.390625 0.1875 0.859375 0.1875q0.484375 0 0.859375 -0.1875q0.390625 -0.203125 0.609375 -0.609375q0.21875 -0.40625 0.21875 -1.046875l0 -4.65625zm5.3134155 6.390625l0 0.234375l-3.328125 0l0 -0.234375l3.328125 0zm-3.1875 -6.390625l0 6.625l-0.234375 0l0 -6.625l0.234375 0zm2.796875 3.09375l0 0.234375l-2.9375 0l0 -0.234375l2.9375 0zm0.390625 -3.09375l0 0.21875l-3.328125 0l0 -0.21875l3.328125 0zm4.5996094 5.03125q0 -0.3125 -0.09375 -0.546875q-0.09375 -0.25 -0.296875 -0.453125q-0.203125 -0.203125 -0.53125 -0.359375q-0.328125 -0.171875 -0.796875 -0.328125q-0.421875 -0.140625 -0.78125 -0.28125q-0.34375 -0.15625 -0.59375 -0.359375q-0.234375 -0.21875 -0.375 -0.5q-0.125 -0.28125 -0.125 -0.671875q0 -0.390625 0.140625 -0.6875q0.140625 -0.296875 0.390625 -0.5q0.25 -0.21875 0.59375 -0.328125q0.359375 -0.109375 0.75 -0.109375q0.546875 0 0.96875 0.203125q0.421875 0.1875 0.65625 0.59375q0.25 0.390625 0.25 0.984375l-0.234375 0q0 -0.5 -0.203125 -0.84375q-0.203125 -0.34375 -0.578125 -0.53125q-0.359375 -0.1875 -0.859375 -0.1875q-0.53125 0 -0.90625 0.203125q-0.359375 0.1875 -0.546875 0.5q-0.1875 0.3125 -0.1875 0.671875q0 0.328125 0.109375 0.578125q0.125 0.25 0.328125 0.4375q0.21875 0.171875 0.53125 0.328125q0.328125 0.15625 0.75 0.28125q0.484375 0.140625 0.828125 0.328125q0.359375 0.171875 0.59375 0.40625q0.234375 0.234375 0.34375 0.53125q0.125 0.28125 0.125 0.640625q0 0.40625 -0.15625 0.71875q-0.140625 0.3125 -0.40625 0.53125q-0.265625 0.21875 -0.625 0.328125q-0.34375 0.109375 -0.734375 0.109375q-0.359375 0 -0.734375 -0.09375q-0.359375 -0.109375 -0.671875 -0.328125q-0.296875 -0.234375 -0.484375 -0.609375q-0.1875 -0.375 -0.1875 -0.9375l0.25 0q0 0.5 0.15625 0.84375q0.171875 0.328125 0.453125 0.53125q0.28125 0.1875 0.59375 0.28125q0.328125 0.078125 0.625 0.078125q0.484375 0 0.859375 -0.1875q0.375 -0.1875 0.59375 -0.5q0.21875 -0.328125 0.21875 -0.765625zm3.2056274 -5.03125l0 6.625l-0.234375 0l0 -6.625l0.234375 0zm2.046875 0l0 0.21875l-4.3125 0l0 -0.21875l4.3125 0z" fill-rule="nonzero"/><path fill="#ffffff" d="m221.73431 524.6721l102.595795 0l0 57.576233l-102.595795 0z" fill-rule="evenodd"/><path stroke="#000000" stroke-width="1.0" stroke-linejoin="round" stroke-linecap="butt" d="m221.73431 524.6721l102.595795 0l0 57.576233l-102.595795 0z" fill-rule="evenodd"/><path fill="#000000" d="m261.8381 554.764l1.09375 0q-0.03125 0.71875 -0.296875 1.21875q-0.25 0.5 -0.734375 0.765625q-0.484375 0.265625 -1.1875 0.265625q-0.53125 0 -0.953125 -0.1875q-0.40625 -0.203125 -0.703125 -0.5625q-0.28125 -0.359375 -0.4375 -0.875q-0.15625 -0.53125 -0.15625 -1.203125l0 -1.171875q0 -0.65625 0.15625 -1.171875q0.15625 -0.53125 0.453125 -0.890625q0.296875 -0.375 0.71875 -0.5625q0.4375 -0.1875 0.96875 -0.1875q0.6875 0 1.15625 0.265625q0.46875 0.265625 0.71875 0.78125q0.265625 0.5 0.296875 1.234375l-1.09375 0q-0.03125 -0.5 -0.140625 -0.796875q-0.109375 -0.296875 -0.34375 -0.421875q-0.21875 -0.140625 -0.59375 -0.140625q-0.3125 0 -0.546875 0.125q-0.21875 0.109375 -0.359375 0.34375q-0.140625 0.234375 -0.21875 0.59375q-0.0625 0.34375 -0.0625 0.828125l0 1.171875q0 0.46875 0.046875 0.8125q0.0625 0.34375 0.1875 0.59375q0.140625 0.25 0.359375 0.375q0.21875 0.125 0.546875 0.125q0.390625 0 0.625 -0.125q0.234375 -0.125 0.34375 -0.40625q0.125 -0.296875 0.15625 -0.796875zm1.8219299 -0.109375l0 -0.390625q0 -0.578125 0.140625 -1.015625q0.140625 -0.453125 0.40625 -0.75q0.265625 -0.296875 0.609375 -0.4375q0.359375 -0.15625 0.796875 -0.15625q0.4375 0 0.78125 0.15625q0.359375 0.140625 0.625 0.4375q0.265625 0.296875 0.40625 0.75q0.140625 0.4375 0.140625 1.015625l0 0.390625q0 0.578125 -0.140625 1.015625q-0.140625 0.4375 -0.40625 0.75q-0.265625 0.296875 -0.625 0.453125q-0.34375 0.140625 -0.78125 0.140625q-0.421875 0 -0.78125 -0.140625q-0.359375 -0.15625 -0.625 -0.453125q-0.265625 -0.3125 -0.40625 -0.75q-0.140625 -0.4375 -0.140625 -1.015625zm1.0625 -0.390625l0 0.390625q0 0.375 0.0625 0.65625q0.0625 0.265625 0.171875 0.453125q0.125 0.171875 0.28125 0.265625q0.171875 0.09375 0.375 0.09375q0.234375 0 0.390625 -0.09375q0.171875 -0.09375 0.28125 -0.265625q0.109375 -0.1875 0.15625 -0.453125q0.0625 -0.28125 0.0625 -0.65625l0 -0.390625q0 -0.375 -0.0625 -0.640625q-0.0625 -0.28125 -0.1875 -0.453125q-0.109375 -0.1875 -0.28125 -0.28125q-0.171875 -0.09375 -0.359375 -0.09375q-0.203125 0 -0.375 0.09375q-0.15625 0.09375 -0.28125 0.28125q-0.109375 0.171875 -0.171875 0.453125q-0.0625 0.265625 -0.0625 0.640625zm4.8001404 -1.21875l0 3.875l-1.0625 0l0 -4.921875l1.0 0l0.0625 1.046875zm-0.1875 1.234375l-0.34375 0q0 -0.53125 0.109375 -0.96875q0.125 -0.4375 0.34375 -0.75q0.21875 -0.3125 0.53125 -0.484375q0.3125 -0.171875 0.6875 -0.171875q0.296875 0 0.53125 0.09375q0.25 0.09375 0.421875 0.3125q0.171875 0.21875 0.265625 0.578125q0.09375 0.34375 0.09375 0.859375l0 3.171875l-1.0625 0l0 -3.1875q0 -0.34375 -0.078125 -0.546875q-0.078125 -0.203125 -0.21875 -0.296875q-0.140625 -0.09375 -0.359375 -0.09375q-0.21875 0 -0.390625 0.125q-0.15625 0.109375 -0.28125 0.3125q-0.125 0.203125 -0.1875 0.46875q-0.0625 0.265625 -0.0625 0.578125zm5.9811707 1.34375q0 -0.15625 -0.09375 -0.265625q-0.078125 -0.125 -0.28125 -0.25q-0.1875 -0.125 -0.515625 -0.25q-0.34375 -0.140625 -0.609375 -0.28125q-0.265625 -0.140625 -0.453125 -0.3125q-0.171875 -0.171875 -0.28125 -0.390625q-0.09375 -0.234375 -0.09375 -0.53125q0 -0.296875 0.109375 -0.5625q0.125 -0.265625 0.328125 -0.453125q0.21875 -0.203125 0.515625 -0.3125q0.3125 -0.109375 0.6875 -0.109375q0.53125 0 0.90625 0.203125q0.390625 0.1875 0.59375 0.53125q0.203125 0.34375 0.203125 0.78125l-1.0625 0q0 -0.1875 -0.078125 -0.328125q-0.0625 -0.15625 -0.203125 -0.25q-0.140625 -0.09375 -0.359375 -0.09375q-0.203125 0 -0.34375 0.078125q-0.125 0.0625 -0.1875 0.1875q-0.0625 0.125 -0.0625 0.28125q0 0.125 0.03125 0.21875q0.046875 0.078125 0.140625 0.15625q0.09375 0.078125 0.25 0.15625q0.171875 0.078125 0.421875 0.1875q0.5 0.1875 0.828125 0.390625q0.328125 0.203125 0.484375 0.484375q0.171875 0.265625 0.171875 0.671875q0 0.328125 -0.125 0.59375q-0.125 0.265625 -0.359375 0.46875q-0.21875 0.1875 -0.53125 0.296875q-0.3125 0.09375 -0.703125 0.09375q-0.578125 0 -0.984375 -0.234375q-0.390625 -0.234375 -0.59375 -0.59375q-0.203125 -0.359375 -0.203125 -0.765625l1.015625 0q0.015625 0.28125 0.125 0.453125q0.109375 0.15625 0.28125 0.21875q0.1875 0.0625 0.375 0.0625q0.21875 0 0.359375 -0.0625q0.15625 -0.0625 0.21875 -0.171875q0.078125 -0.125 0.078125 -0.296875zm1.8075256 -0.96875l0 -0.390625q0 -0.578125 0.140625 -1.015625q0.140625 -0.453125 0.40625 -0.75q0.265625 -0.296875 0.609375 -0.4375q0.359375 -0.15625 0.796875 -0.15625q0.4375 0 0.78125 0.15625q0.359375 0.140625 0.625 0.4375q0.265625 0.296875 0.40625 0.75q0.140625 0.4375 0.140625 1.015625l0 0.390625q0 0.578125 -0.140625 1.015625q-0.140625 0.4375 -0.40625 0.75q-0.265625 0.296875 -0.625 0.453125q-0.34375 0.140625 -0.78125 0.140625q-0.421875 0 -0.78125 -0.140625q-0.359375 -0.15625 -0.625 -0.453125q-0.265625 -0.3125 -0.40625 -0.75q-0.140625 -0.4375 -0.140625 -1.015625zm1.0625 -0.390625l0 0.390625q0 0.375 0.0625 0.65625q0.0625 0.265625 0.171875 0.453125q0.125 0.171875 0.28125 0.265625q0.171875 0.09375 0.375 0.09375q0.234375 0 0.390625 -0.09375q0.171875 -0.09375 0.28125 -0.265625q0.109375 -0.1875 0.15625 -0.453125q0.0625 -0.28125 0.0625 -0.65625l0 -0.390625q0 -0.375 -0.0625 -0.640625q-0.0625 -0.28125 -0.1875 -0.453125q-0.109375 -0.1875 -0.28125 -0.28125q-0.171875 -0.09375 -0.359375 -0.09375q-0.203125 0 -0.375 0.09375q-0.15625 0.09375 -0.28125 0.28125q-0.109375 0.171875 -0.171875 0.453125q-0.0625 0.265625 -0.0625 0.640625zm4.8782654 -4.34375l0 7.0l-1.0625 0l0 -7.0l1.0625 0zm3.0202332 7.09375q-0.484375 0 -0.859375 -0.140625q-0.375 -0.15625 -0.640625 -0.4375q-0.25 -0.28125 -0.390625 -0.6875q-0.125 -0.421875 -0.125 -0.984375l0 -0.46875q0 -0.625 0.140625 -1.078125q0.140625 -0.453125 0.390625 -0.734375q0.265625 -0.296875 0.609375 -0.4375q0.34375 -0.140625 0.765625 -0.140625q0.453125 0 0.796875 0.15625q0.34375 0.140625 0.5625 0.4375q0.21875 0.296875 0.328125 0.75q0.109375 0.4375 0.109375 1.015625l0 0.53125l-3.203125 0l0 -0.796875l2.15625 0l0 -0.125q-0.015625 -0.328125 -0.09375 -0.5625q-0.0625 -0.25 -0.234375 -0.375q-0.15625 -0.140625 -0.4375 -0.140625q-0.203125 0 -0.359375 0.078125q-0.15625 0.078125 -0.265625 0.25q-0.09375 0.171875 -0.15625 0.46875q-0.046875 0.28125 -0.046875 0.703125l0 0.46875q0 0.375 0.0625 0.640625q0.0625 0.25 0.1875 0.40625q0.140625 0.15625 0.328125 0.234375q0.1875 0.078125 0.4375 0.078125q0.375 0 0.640625 -0.140625q0.265625 -0.140625 0.453125 -0.359375l0.46875 0.65625q-0.125 0.171875 -0.359375 0.34375q-0.21875 0.171875 -0.53125 0.28125q-0.3125 0.109375 -0.734375 0.109375z" fill-rule="nonzero"/><path fill="#ffffff" d="m798.5089 524.6721l79.49054 0l0 57.576233l-79.49054 0z" fill-rule="evenodd"/><path stroke="#000000" stroke-width="1.0" stroke-linejoin="round" stroke-linecap="butt" d="m798.5089 524.6721l79.49054 0l0 57.576233l-79.49054 0z" fill-rule="evenodd"/><path fill="#000000" d="m824.3945 551.2015l-1.609375 5.71875l-1.15625 0l2.109375 -6.625l0.71875 0l-0.0625 0.90625zm1.28125 5.71875l-1.609375 -5.71875l-0.078125 -0.90625l0.734375 0l2.109375 6.625l-1.15625 0zm0.03125 -2.46875l0 0.9375l-3.09375 0l0 -0.9375l3.09375 0zm2.7404175 -1.515625l0 5.875l-1.0625 0l0 -6.8125l0.96875 0l0.09375 0.9375zm2.65625 1.328125l0 0.390625q0 0.578125 -0.109375 1.015625q-0.109375 0.4375 -0.3125 0.75q-0.203125 0.296875 -0.5 0.453125q-0.296875 0.140625 -0.6875 0.140625q-0.375 0 -0.65625 -0.15625q-0.265625 -0.171875 -0.453125 -0.46875q-0.1875 -0.296875 -0.296875 -0.703125q-0.109375 -0.40625 -0.15625 -0.890625l0 -0.609375q0.046875 -0.5 0.140625 -0.921875q0.109375 -0.421875 0.296875 -0.71875q0.203125 -0.3125 0.46875 -0.46875q0.28125 -0.171875 0.65625 -0.171875q0.390625 0 0.6875 0.140625q0.3125 0.140625 0.515625 0.4375q0.203125 0.28125 0.296875 0.734375q0.109375 0.4375 0.109375 1.046875zm-1.0625 0.390625l0 -0.390625q0 -0.375 -0.046875 -0.65625q-0.046875 -0.28125 -0.15625 -0.453125q-0.109375 -0.171875 -0.28125 -0.265625q-0.15625 -0.09375 -0.390625 -0.09375q-0.203125 0 -0.375 0.09375q-0.15625 0.09375 -0.265625 0.25q-0.109375 0.140625 -0.171875 0.359375q-0.0625 0.203125 -0.078125 0.4375l0 1.109375q0.046875 0.296875 0.140625 0.546875q0.09375 0.234375 0.265625 0.390625q0.1875 0.140625 0.5 0.140625q0.234375 0 0.390625 -0.09375q0.171875 -0.09375 0.265625 -0.265625q0.109375 -0.1875 0.15625 -0.453125q0.046875 -0.28125 0.046875 -0.65625zm3.015686 -1.71875l0 5.875l-1.0625 0l0 -6.8125l0.96875 0l0.09375 0.9375zm2.65625 1.328125l0 0.390625q0 0.578125 -0.109375 1.015625q-0.109375 0.4375 -0.3125 0.75q-0.203125 0.296875 -0.5 0.453125q-0.296875 0.140625 -0.6875 0.140625q-0.375 0 -0.65625 -0.15625q-0.265625 -0.171875 -0.453125 -0.46875q-0.1875 -0.296875 -0.296875 -0.703125q-0.109375 -0.40625 -0.15625 -0.890625l0 -0.609375q0.046875 -0.5 0.140625 -0.921875q0.109375 -0.421875 0.296875 -0.71875q0.203125 -0.3125 0.46875 -0.46875q0.28125 -0.171875 0.65625 -0.171875q0.390625 0 0.6875 0.140625q0.3125 0.140625 0.515625 0.4375q0.203125 0.28125 0.296875 0.734375q0.109375 0.4375 0.109375 1.046875zm-1.0625 0.390625l0 -0.390625q0 -0.375 -0.046875 -0.65625q-0.046875 -0.28125 -0.15625 -0.453125q-0.109375 -0.171875 -0.28125 -0.265625q-0.15625 -0.09375 -0.390625 -0.09375q-0.203125 0 -0.375 0.09375q-0.15625 0.09375 -0.265625 0.25q-0.109375 0.140625 -0.171875 0.359375q-0.0625 0.203125 -0.078125 0.4375l0 1.109375q0.046875 0.296875 0.140625 0.546875q0.09375 0.234375 0.265625 0.390625q0.1875 0.140625 0.5 0.140625q0.234375 0 0.390625 -0.09375q0.171875 -0.09375 0.265625 -0.265625q0.109375 -0.1875 0.15625 -0.453125q0.046875 -0.28125 0.046875 -0.65625zm3.078125 -4.734375l0 7.0l-1.0625 0l0 -7.0l1.0625 0zm3.0202637 7.09375q-0.484375 0 -0.859375 -0.140625q-0.375 -0.15625 -0.640625 -0.4375q-0.25 -0.28125 -0.390625 -0.6875q-0.125 -0.421875 -0.125 -0.984375l0 -0.46875q0 -0.625 0.140625 -1.078125q0.140625 -0.453125 0.390625 -0.734375q0.265625 -0.296875 0.609375 -0.4375q0.34375 -0.140625 0.765625 -0.140625q0.453125 0 0.796875 0.15625q0.34375 0.140625 0.5625 0.4375q0.21875 0.296875 0.328125 0.75q0.109375 0.4375 0.109375 1.015625l0 0.53125l-3.203125 0l0 -0.796875l2.15625 0l0 -0.125q-0.015625 -0.328125 -0.09375 -0.5625q-0.0625 -0.25 -0.234375 -0.375q-0.15625 -0.140625 -0.4375 -0.140625q-0.203125 0 -0.359375 0.078125q-0.15625 0.078125 -0.265625 0.25q-0.09375 0.171875 -0.15625 0.46875q-0.046875 0.28125 -0.046875 0.703125l0 0.46875q0 0.375 0.0625 0.640625q0.0625 0.25 0.1875 0.40625q0.140625 0.15625 0.328125 0.234375q0.1875 0.078125 0.4375 0.078125q0.375 0 0.640625 -0.140625q0.265625 -0.140625 0.453125 -0.359375l0.46875 0.65625q-0.125 0.171875 -0.359375 0.34375q-0.21875 0.171875 -0.53125 0.28125q-0.3125 0.109375 -0.734375 0.109375zm6.9448853 -6.71875l0 6.625l-1.109375 0l0 -6.625l1.109375 0zm1.6875 0l0 0.921875l-4.46875 0l0 -0.921875l4.46875 0zm2.8859253 5.390625l1.421875 -5.390625l1.1875 0l-1.96875 6.625l-0.828125 0l0.1875 -1.234375zm-1.234375 -5.390625l1.40625 5.390625l0.203125 1.234375l-0.8125 0l-1.984375 -6.625l1.1875 0z" fill-rule="nonzero"/><path fill="#ffffff" d="m256.8853 350.51273l161.66614 0l0 67.35916l-161.66614 0z" fill-rule="evenodd"/><path stroke="#000000" stroke-width="1.0" stroke-linejoin="round" stroke-linecap="butt" d="m256.8853 350.51273l161.66614 0l0 67.35916l-161.66614 0z" fill-rule="evenodd"/><path fill="#000000" d="m323.03714 381.0273l2.0 0q0.65625 0 1.109375 0.234375q0.453125 0.21875 0.6875 0.671875q0.25 0.4375 0.25 1.09375q0 0.484375 -0.15625 0.875q-0.140625 0.375 -0.421875 0.640625q-0.265625 0.25 -0.65625 0.390625l-0.328125 0.171875l-1.703125 0l0 -0.921875l1.1875 0q0.328125 0 0.546875 -0.140625q0.21875 -0.140625 0.3125 -0.390625q0.109375 -0.265625 0.109375 -0.578125q0 -0.34375 -0.09375 -0.59375q-0.09375 -0.25 -0.296875 -0.390625q-0.203125 -0.140625 -0.546875 -0.140625l-0.890625 0l0 5.703125l-1.109375 0l0 -6.625zm3.09375 6.625l-1.265625 -2.984375l1.15625 0l1.28125 2.921875l0 0.0625l-1.171875 0zm6.4711304 -3.859375l0 1.125q0 0.703125 -0.171875 1.234375q-0.15625 0.53125 -0.46875 0.890625q-0.296875 0.34375 -0.71875 0.53125q-0.421875 0.171875 -0.953125 0.171875q-0.515625 0 -0.953125 -0.171875q-0.421875 -0.1875 -0.734375 -0.53125q-0.296875 -0.359375 -0.46875 -0.890625q-0.15625 -0.53125 -0.15625 -1.234375l0 -1.125q0 -0.703125 0.15625 -1.234375q0.171875 -0.546875 0.46875 -0.90625q0.3125 -0.359375 0.734375 -0.53125q0.4375 -0.1875 0.953125 -0.1875q0.515625 0 0.9375 0.1875q0.4375 0.171875 0.734375 0.53125q0.3125 0.359375 0.46875 0.90625q0.171875 0.53125 0.171875 1.234375zm-1.109375 1.125l0 -1.125q0 -0.515625 -0.078125 -0.875q-0.078125 -0.359375 -0.234375 -0.59375q-0.15625 -0.234375 -0.375 -0.34375q-0.21875 -0.109375 -0.515625 -0.109375q-0.296875 0 -0.53125 0.109375q-0.21875 0.109375 -0.375 0.34375q-0.15625 0.234375 -0.234375 0.59375q-0.078125 0.359375 -0.078125 0.875l0 1.125q0 0.5 0.078125 0.859375q0.09375 0.359375 0.25 0.59375q0.15625 0.21875 0.375 0.328125q0.234375 0.109375 0.515625 0.109375q0.296875 0 0.515625 -0.109375q0.234375 -0.109375 0.375 -0.328125q0.15625 -0.234375 0.234375 -0.59375q0.078125 -0.359375 0.078125 -0.859375zm5.2612 -3.890625l1.109375 0l0 4.59375q0 0.765625 -0.28125 1.234375q-0.28125 0.453125 -0.765625 0.671875q-0.484375 0.21875 -1.0625 0.21875q-0.609375 0 -1.09375 -0.21875q-0.484375 -0.21875 -0.765625 -0.671875q-0.265625 -0.46875 -0.265625 -1.234375l0 -4.59375l1.109375 0l0 4.59375q0 0.484375 0.109375 0.75q0.125 0.25 0.34375 0.359375q0.234375 0.09375 0.5625 0.09375q0.3125 0 0.53125 -0.09375q0.234375 -0.109375 0.34375 -0.359375q0.125 -0.265625 0.125 -0.75l0 -4.59375zm4.6630554 0l0 6.625l-1.109375 0l0 -6.625l1.109375 0zm1.6875 0l0 0.921875l-4.46875 0l0 -0.921875l4.46875 0zm4.5629883 5.703125l0 0.921875l-2.875 0l0 -0.921875l2.875 0zm-2.59375 -5.703125l0 6.625l-1.09375 0l0 -6.625l1.09375 0zm2.203125 2.75l0 0.921875l-2.484375 0l0 -0.921875l2.484375 0zm0.359375 -2.75l0 0.921875l-2.84375 0l0 -0.921875l2.84375 0zm0.9486084 0l2.0 0q0.65625 0 1.109375 0.234375q0.453125 0.21875 0.6875 0.671875q0.25 0.4375 0.25 1.09375q0 0.484375 -0.15625 0.875q-0.140625 0.375 -0.421875 0.640625q-0.265625 0.25 -0.65625 0.390625l-0.328125 0.171875l-1.703125 0l0 -0.921875l1.1875 0q0.328125 0 0.546875 -0.140625q0.21875 -0.140625 0.3125 -0.390625q0.109375 -0.265625 0.109375 -0.578125q0 -0.34375 -0.09375 -0.59375q-0.09375 -0.25 -0.296875 -0.390625q-0.203125 -0.140625 -0.546875 -0.140625l-0.890625 0l0 5.703125l-1.109375 0l0 -6.625zm3.09375 6.625l-1.265625 -2.984375l1.15625 0l1.28125 2.921875l0 0.0625l-1.171875 0z" fill-rule="nonzero"/><path fill="#ffffff" d="m507.15396 417.46448l0 0c0 -6.200348 5.0263977 -11.226746 11.226776 -11.226746l139.21259 0c2.977539 0 5.833069 1.1828308 7.9385376 3.2882385c2.1054077 2.1054382 3.288208 4.9609985 3.288208 7.938507l0 44.90567c0 6.200348 -5.026367 11.226746 -11.226746 11.226746l-139.21259 0c-6.2003784 0 -11.226776 -5.0263977 -11.226776 -11.226746z" fill-rule="evenodd"/><path stroke="#000000" stroke-width="1.0" stroke-linejoin="round" stroke-linecap="butt" d="m507.15396 417.46448l0 0c0 -6.200348 5.0263977 -11.226746 11.226776 -11.226746l139.21259 0c2.977539 0 5.833069 1.1828308 7.9385376 3.2882385c2.1054077 2.1054382 3.288208 4.9609985 3.288208 7.938507l0 44.90567c0 6.200348 -5.026367 11.226746 -11.226746 11.226746l-139.21259 0c-6.2003784 0 -11.226776 -5.0263977 -11.226776 -11.226746z" fill-rule="evenodd"/><path fill="#000000" d="m579.62024 437.65857l-1.609375 5.71875l-1.15625 0l2.109375 -6.625l0.71875 0l-0.0625 0.90625zm1.28125 5.71875l-1.609375 -5.71875l-0.078125 -0.90625l0.734375 0l2.109375 6.625l-1.15625 0zm0.03125 -2.46875l0 0.9375l-3.09375 0l0 -0.9375l3.09375 0zm4.0776978 0.015625l-1.40625 0l0 -0.9375l1.40625 0q0.34375 0 0.546875 -0.140625q0.21875 -0.140625 0.3125 -0.390625q0.09375 -0.265625 0.09375 -0.59375q0 -0.296875 -0.09375 -0.5625q-0.09375 -0.28125 -0.3125 -0.453125q-0.203125 -0.171875 -0.546875 -0.171875l-1.09375 0l0 5.703125l-1.09375 0l0 -6.625l2.1875 0q0.65625 0 1.109375 0.28125q0.46875 0.265625 0.71875 0.734375q0.25 0.46875 0.25 1.09375q0 0.640625 -0.25 1.109375q-0.25 0.453125 -0.71875 0.703125q-0.453125 0.25 -1.109375 0.25zm5.6065674 2.453125l1.03125 -6.625l0.71875 0l-1.046875 6.625l-0.703125 0zm1.46875 0l1.03125 -6.625l0.71875 0l-1.03125 6.625l-0.71875 0zm2.234375 -4.015625l-3.984375 0l0 -0.71875l3.984375 0l0 0.71875zm-0.296875 2.140625l-3.984375 0l0 -0.703125l3.984375 0l0 0.703125zm3.6820679 -4.78125l0 6.65625l-1.0625 0l0 -5.328125l-1.3125 0.546875l0 -0.921875l2.25 -0.953125l0.125 0z" fill-rule="nonzero"/><path fill="#ffffff" d="m757.4226 243.36632l0 0c0 -6.200363 5.026367 -11.226761 11.226746 -11.226761l139.21265 0c2.977478 0 5.833069 1.1828156 7.9384766 3.2882538c2.1054077 2.105423 3.288269 4.9609833 3.288269 7.938507l0 44.905655c0 6.2003784 -5.026428 11.226746 -11.226746 11.226746l-139.21265 0c-6.2003784 0 -11.226746 -5.026367 -11.226746 -11.226746z" fill-rule="evenodd"/><path stroke="#000000" stroke-width="1.0" stroke-linejoin="round" stroke-linecap="butt" d="m757.4226 243.36632l0 0c0 -6.200363 5.026367 -11.226761 11.226746 -11.226761l139.21265 0c2.977478 0 5.833069 1.1828156 7.9384766 3.2882538c2.1054077 2.105423 3.288269 4.9609833 3.288269 7.938507l0 44.905655c0 6.2003784 -5.026428 11.226746 -11.226746 11.226746l-139.21265 0c-6.2003784 0 -11.226746 -5.026367 -11.226746 -11.226746z" fill-rule="evenodd"/><path fill="#000000" d="m828.8163 263.5604l-1.609375 5.71875l-1.15625 0l2.109375 -6.625l0.71875 0l-0.0625 0.90625zm1.28125 5.71875l-1.609375 -5.71875l-0.078125 -0.90625l0.734375 0l2.109375 6.625l-1.15625 0zm0.03125 -2.46875l0 0.9375l-3.09375 0l0 -0.9375l3.09375 0zm4.0776367 0.015625l-1.40625 0l0 -0.9375l1.40625 0q0.34375 0 0.546875 -0.140625q0.21875 -0.140625 0.3125 -0.390625q0.09375 -0.265625 0.09375 -0.59375q0 -0.296875 -0.09375 -0.5625q-0.09375 -0.28125 -0.3125 -0.453125q-0.203125 -0.171875 -0.546875 -0.171875l-1.09375 0l0 5.703125l-1.09375 0l0 -6.625l2.1875 0q0.65625 0 1.109375 0.28125q0.46875 0.265625 0.71875 0.734375q0.25 0.46875 0.25 1.09375q0 0.640625 -0.25 1.109375q-0.25 0.453125 -0.71875 0.703125q-0.453125 0.25 -1.109375 0.25zm7.751892 2.453125l1.03125 -6.625l0.71875 0l-1.046875 6.625l-0.703125 0zm1.46875 0l1.03125 -6.625l0.71875 0l-1.03125 6.625l-0.71875 0zm2.234375 -4.015625l-3.984375 0l0 -0.71875l3.984375 0l0 0.71875zm-0.296875 2.140625l-3.984375 0l0 -0.703125l3.984375 0l0 0.703125zm2.1508179 -1.953125l0.578125 0q0.28125 0 0.46875 -0.125q0.1875 -0.125 0.28125 -0.359375q0.09375 -0.234375 0.09375 -0.53125q0 -0.296875 -0.09375 -0.515625q-0.078125 -0.234375 -0.25 -0.34375q-0.15625 -0.125 -0.421875 -0.125q-0.21875 0 -0.390625 0.109375q-0.171875 0.109375 -0.265625 0.328125q-0.09375 0.203125 -0.09375 0.484375l-1.0625 0q0 -0.53125 0.234375 -0.9375q0.234375 -0.421875 0.640625 -0.640625q0.40625 -0.234375 0.921875 -0.234375q0.546875 0 0.953125 0.21875q0.421875 0.203125 0.65625 0.625q0.234375 0.40625 0.234375 1.03125q0 0.28125 -0.109375 0.578125q-0.109375 0.296875 -0.328125 0.53125q-0.21875 0.234375 -0.546875 0.390625q-0.328125 0.140625 -0.765625 0.140625l-0.734375 0l0 -0.625zm0 0.875l0 -0.609375l0.734375 0q0.515625 0 0.859375 0.140625q0.34375 0.140625 0.546875 0.375q0.21875 0.234375 0.3125 0.546875q0.109375 0.296875 0.109375 0.640625q0 0.46875 -0.15625 0.828125q-0.140625 0.359375 -0.40625 0.625q-0.25 0.25 -0.609375 0.375q-0.34375 0.125 -0.75 0.125q-0.375 0 -0.703125 -0.109375q-0.328125 -0.125 -0.59375 -0.359375q-0.25 -0.234375 -0.40625 -0.59375q-0.140625 -0.359375 -0.140625 -0.828125l1.0625 0q0 0.296875 0.09375 0.53125q0.109375 0.21875 0.28125 0.34375q0.171875 0.125 0.421875 0.125q0.25 0 0.4375 -0.125q0.203125 -0.125 0.296875 -0.359375q0.109375 -0.234375 0.109375 -0.578125q0 -0.375 -0.125 -0.609375q-0.109375 -0.25 -0.3125 -0.359375q-0.203125 -0.125 -0.484375 -0.125l-0.578125 0z" fill-rule="nonzero"/><path fill="#000000" fill-opacity="0.0" d="m418.55145 384.1923l419.71008 0l0 22.040619" fill-rule="evenodd"/><path stroke="#000000" stroke-width="3.0" stroke-linejoin="round" stroke-linecap="butt" d="m418.55145 384.1923l419.71008 0l0 22.040619" fill-rule="evenodd"/><path fill="#000000" fill-opacity="0.0" d="m417.31198 406.43106l44.92099 0l0 33.486267l44.92099 0" fill-rule="evenodd"/><path stroke="#000000" stroke-width="3.0" stroke-linejoin="round" stroke-linecap="butt" d="m417.31198 406.43106l44.92099 0l0 33.486267l44.92099 0" fill-rule="evenodd"/><path fill="#000000" fill-opacity="0.0" d="m838.2557 473.5969l0 51.080048" fill-rule="evenodd"/><path stroke="#000000" stroke-width="3.0" stroke-linejoin="round" stroke-linecap="butt" d="m838.2557 473.5969l0 51.080048" fill-rule="evenodd"/><path fill="#ffffff" d="m333.48624 524.5046l102.595825 0l0 57.576233l-102.595825 0z" fill-rule="evenodd"/><path stroke="#000000" stroke-width="1.0" stroke-linejoin="round" stroke-linecap="butt" d="m333.48624 524.5046l102.595825 0l0 57.576233l-102.595825 0z" fill-rule="evenodd"/><path fill="#000000" d="m382.63663 550.1277l0 6.625l-1.109375 0l0 -6.625l1.109375 0zm1.6875 0l0 0.921875l-4.46875 0l0 -0.921875l4.46875 0zm2.8858948 5.390625l1.421875 -5.390625l1.1875 0l-1.96875 6.625l-0.828125 0l0.1875 -1.234375zm-1.234375 -5.390625l1.40625 5.390625l0.203125 1.234375l-0.8125 0l-1.984375 -6.625l1.1875 0z" fill-rule="nonzero"/><path fill="#000000" fill-opacity="0.0" d="m337.71838 417.8719l0 0.03866577l0.07064819 0l0 0.03866577" fill-rule="evenodd"/><path stroke="#000000" stroke-width="1.0" stroke-linejoin="round" stroke-linecap="butt" d="m337.71838 417.8719l0 0.03866577l0.07064819 0l0 0.03866577" fill-rule="evenodd"/><path fill="#000000" fill-opacity="0.0" d="m273.0322 524.6721l0 -53.400116l64.68765 0l0 -53.400116" fill-rule="evenodd"/><path stroke="#000000" stroke-width="3.0" stroke-linejoin="round" stroke-linecap="butt" d="m273.0322 524.6721l0 -53.400116l64.68765 0l0 -53.400116" fill-rule="evenodd"/><path fill="#000000" fill-opacity="0.0" d="m384.78415 524.5046l0 -54.154144l0.1413269 0l0 -54.154144" fill-rule="evenodd"/><path stroke="#000000" stroke-width="3.0" stroke-linejoin="round" stroke-linecap="butt" d="m384.78415 524.5046l0 -54.154144l0.1413269 0l0 -54.154144" fill-rule="evenodd"/></g></svg>